<?xml version="1.0" standalone="no"?><!DOCTYPE svg PUBLIC "-//W3C//DTD SVG 1.1//EN" "http://www.w3.org/Graphics/SVG/1.1/DTD/svg11.dtd"><svg t="1670314359549" class="icon" viewBox="0 0 1024 1024" version="1.1" xmlns="http://www.w3.org/2000/svg" p-id="1186" xmlns:xlink="http://www.w3.org/1999/xlink" width="200" height="200"><path d="M0 0h1024v1024H0z" fill="#FF0000" fill-opacity="0" p-id="1187"></path><path d="M512 74.666667C259.242667 74.666667 53.333333 269.888 53.333333 512l0.106667 9.685333c2.005333 87.146667 30.826667 170.666667 83.029333 241.493334l4.650667 6.165333-28.010667 97.578667c-9.813333 34.133333 9.941333 69.76 44.074667 79.573333l4.757333 0.682667c20.778667 2.986667 22.250667 2.389333 44.544-6.464l82.56-46.464-4.437333-2.346667C353.749333 929.6 431.658667 949.333333 512 949.333333c252.757333 0 458.666667-195.221333 458.666667-437.333333S764.757333 74.666667 512 74.666667z m0 64c218.602667 0 394.666667 167.786667 394.666667 373.333333S730.602667 885.333333 512 885.333333c-70.122667 0-137.429333-17.28-196.736-49.621333l-26.752-14.592-113.408 63.829333a0.32 0.32 0 0 1-0.490667-0.384l36.970667-128.746666-18.218667-23.509334-5.397333-7.125333C142.208 663.104 117.333333 589.354667 117.333333 512c0-205.546667 176.064-373.333333 394.666667-373.333333z" fill="#111111" p-id="1188"></path><path d="M694.314667 419.072a32 32 0 0 1 43.221333 47.210667l-196.736 180.096a117.333333 117.333333 0 0 1-161.344-2.730667l-83.093333-81.429333a32 32 0 1 1 44.8-45.717334l83.093333 81.429334a53.333333 53.333333 0 0 0 73.344 1.237333l196.714667-180.096z" fill="#111111" p-id="1189"></path></svg>