<?xml version="1.0" standalone="no"?><!DOCTYPE svg PUBLIC "-//W3C//DTD SVG 1.1//EN" "http://www.w3.org/Graphics/SVG/1.1/DTD/svg11.dtd"><svg t="1670314364588" class="icon" viewBox="0 0 1024 1024" version="1.1" xmlns="http://www.w3.org/2000/svg" p-id="1333" xmlns:xlink="http://www.w3.org/1999/xlink" width="200" height="200"><path d="M0 0h1024v1024H0z" fill="#FF0000" fill-opacity="0" p-id="1334"></path><path d="M507.690667 106.666667h-12.245334l-5.461333 0.064c-107.050667 3.413333-190.549333 91.733333-190.549333 198.784v92.949333l0.085333 6.634667 0.384 7.274666c3.498667 50.773333 24.533333 97.536 59.434667 132.650667l40.085333 40.405333 0.597333 0.661334a2.837333 2.837333 0 0 1 0.32 1.322666l-0.042666 5.653334-278.08 134.357333-4.501334 2.304C83.754667 748.736 64 782.933333 64 819.776v9.450667l0.170667 6.485333C67.029333 881.28 104.533333 917.333333 150.570667 917.333333h701.525333C900.266667 917.333333 938.666667 877.994667 938.666667 830.208v-10.432l-0.106667-4.864a101.973333 101.973333 0 0 0-57.258667-87.061333L602.304 593.066667v-5.653334c0-0.746667 0.277333-1.386667 0.597333-1.706666l40.448-40.704a207.146667 207.146667 0 0 0 59.882667-145.941334V305.493333c0-109.44-87.189333-198.826667-195.541333-198.826666z m0 64c72.64 0 131.541333 60.373333 131.541333 134.826666v93.546667a143.146667 143.146667 0 0 1-41.301333 100.864l-40.469334 40.746667a66.410667 66.410667 0 0 0-19.136 46.762666v5.824c0 24.426667 13.738667 46.656 35.285334 57.045334l279.829333 135.168c12.949333 6.272 21.226667 19.626667 21.226667 34.346666v10.410667c0 12.8-10.112 23.125333-22.570667 23.125333H150.570667a22.826667 22.826667 0 0 1-22.528-21.632L128 819.776c0-13.866667 7.381333-26.602667 19.221333-33.28l2.837334-1.450667 278.997333-134.762666a63.018667 63.018667 0 0 0 34.986667-50.986667l0.256-4.565333 0.042666-7.317334c0-15.36-5.248-30.165333-14.805333-41.92l-3.264-3.733333-41.536-41.834667a143.018667 143.018667 0 0 1-41.216-95.722666l-0.085333-5.738667V305.493333c0-72.810667 56.426667-132.48 127.424-134.762666L495.445333 170.666667h12.245334z" fill="#000000" p-id="1335"></path><path d="M949.333333 576v21.333333a21.333333 21.333333 0 0 1-21.333333 21.333334h-85.333333a21.333333 21.333333 0 0 1-21.333334-21.333334v-21.333333a21.333333 21.333333 0 0 1 21.333334-21.333333h85.333333a21.333333 21.333333 0 0 1 21.333333 21.333333zM949.333333 458.666667v21.333333a21.333333 21.333333 0 0 1-21.333333 21.333333h-149.333333a21.333333 21.333333 0 0 1-21.333334-21.333333v-21.333333a21.333333 21.333333 0 0 1 21.333334-21.333334h149.333333a21.333333 21.333333 0 0 1 21.333333 21.333334zM949.333333 341.333333v21.333334a21.333333 21.333333 0 0 1-21.333333 21.333333h-149.333333a21.333333 21.333333 0 0 1-21.333334-21.333333v-21.333334a21.333333 21.333333 0 0 1 21.333334-21.333333h149.333333a21.333333 21.333333 0 0 1 21.333333 21.333333z" fill="#000000" p-id="1336"></path></svg>